# xmcd
#
# Track frame offsets:
#	150
#	22813
#	47384
#	66790
#	90383
#	119635
#
# Disc length: 1915 seconds
#
# Revision: 1
# Processed by: cddbd v1.5.2PL0 Copyright (c) Steve Scherf et al.
# Submitted via: audiograbber 1.83.01
#
DISCID=40077906
DTITLE=Keramick and Lobo - Answers Remixes (Mini-Album)
DYEAR=2010
DGENRE=Electronic
TTITLE0=Answers (Original Mix)
TTITLE1=Answers (Jussi Mikkonen Remix)
TTITLE2=Answers (Visa Maekinen Remix)
TTITLE3=Answers (RRKK Remix)
TTITLE4=Answers (Ercola Remix)
TTITLE5=Answers (Rumpistol Remix)
EXTD=TR.
EXTT0=
EXTT1=
EXTT2=
EXTT3=
EXTT4=
EXTT5=
PLAYORDER=
